<svg width="161" height="185" viewBox="0 0 161 185" fill="none" xmlns="http://www.w3.org/2000/svg">
<mask id="mask0" mask-type="alpha" maskUnits="userSpaceOnUse" x="0" y="1" width="159" height="181">
<path d="M72.0182 1.28525C69.5718 1.43624 67.1385 1.80766 64.7603 2.41272C62.5888 2.96489 60.4381 3.60853 58.2732 4.19156C38.1092 9.43107 22.7106 21.0993 11.7759 38.8843C1.899 54.9445 -1.45561 72.3504 0.560894 90.9158C2.31242 107.039 9.54721 120.715 19.8397 132.898C28.9932 143.733 39.7805 152.702 51.6079 160.491C63.8763 168.57 76.9407 174.89 90.9507 179.268C94.4097 180.348 97.9634 181.003 101.513 181.68C102.271 181.825 103.097 181.964 103.62 181.187C104.05 180.55 103.881 179.892 103.595 179.285C103.288 178.636 102.857 178.053 102.399 177.499C100.046 174.657 98.3273 171.45 96.8803 168.076C95.1761 164.098 95.7874 159.712 101.409 158.248C116.071 154.429 128.22 146.324 138.157 134.991C152.457 118.681 159.14 99.4925 158.008 77.8655C156.807 54.949 147.525 35.6419 130.201 20.546C115.076 7.36789 97.4994 1.10229 77.894 1.10229C75.9544 1.10229 73.9973 1.16401 72.0182 1.28525Z" fill="white"/>
</mask>
<g mask="url(#mask0)">
<path d="M163.627 -4.4082L163.624 76.5596L140.975 76.3884L140.744 76.3873C135.388 76.3873 130.13 77.8399 125.526 80.5952L119.998 83.9049L114.238 77.4001C113.774 76.8788 113.255 76.4049 112.691 75.9905C110.559 74.4222 107.947 73.7818 105.335 74.1852C102.723 74.5886 100.423 75.9872 98.8591 78.1242L95.2461 83.0617L90.3709 65.2183C89.5155 62.0827 87.0218 59.6801 83.8574 58.9494C81.5682 58.4248 79.2108 58.8193 77.2185 60.0702C75.2262 61.3201 73.8408 63.273 73.3142 65.5677L68.9172 84.7359L66.2102 72.5618C65.4307 69.0647 62.8204 66.2521 59.3998 65.2238C56.8655 64.46 54.1903 64.7311 51.8638 65.9876C49.5361 67.2429 47.8352 69.3303 47.0743 71.8685L43.8483 82.633L41.7076 76.1426C40.3629 72.0724 36.5883 69.3391 32.3122 69.3391H26.3881C23.3523 69.3391 20.8905 71.8057 20.8905 74.8498C20.8905 77.8939 23.3523 80.3604 26.3881 80.3604H31.5173L37.7867 99.3633C38.9302 102.821 42.6697 104.708 46.1243 103.561C48.1639 102.885 49.7505 101.247 50.3673 99.1859L56.3938 79.0786L62.4114 106.136C62.7951 107.86 63.8243 109.331 65.313 110.279C66.3828 110.961 67.5989 111.311 68.838 111.311C69.3196 111.311 69.8067 111.259 70.2883 111.151C72.749 110.6 74.7083 108.652 75.2801 106.179L82.0729 76.5702L85.8453 90.3733C86.4643 92.6447 87.9311 94.5382 89.9718 95.7053C92.0125 96.8703 94.3841 97.169 96.6502 96.5496C98.5568 96.0272 100.251 94.8578 101.421 93.2597L106.921 85.7421L111.776 91.223C115.28 95.1741 121.106 96.0757 125.634 93.3666L131.162 90.058C134.102 88.2979 137.41 87.3854 140.89 87.4096L163.624 87.5809L163.627 187.304H-5.49756V-4.4082H163.627Z" fill="#F6F6F6"/>
</g>
</svg>
